

==========================================
	Pre-Check Configurations
==========================================

File to be converted
--------------------
		Initializing File <strong>1614260084812ef.mp4</strong> and pre checking configurations...

System hardware Information
---------------------------
		Unable log System hardware information, plaese install "lshw" 

Temporary Uploading
-------------------
		File Uploaded to Temp directory successfully and video conversion file is being executed !

Video Conversion File Execution
-------------------------------
		Video Converson File executed successfully with Target File > !1614260084812ef.mp4


==========================================
	Starting Conversion Log
==========================================

Getting Arguments
-----------------
		Filename : 1614260084812ef.mp4
File directory : 2021/02/25
Log file : /var/www/vhosts/centx.app/httpdocs/files/logs/2021/02/25/1614260084812ef.log


Conversion queue
----------------
		Getting the file information from the queue for conversion

Conversion queue
----------------
		File has been moved from Temporary dir to Conversion Queue/var/www/vhosts/centx.app/httpdocs/files/temp/1614260084812ef.abc Orig_ /var/www/vhosts/centx.app/httpdocs/files/conversion_queue/1614260084812ef.mp4

Parsing FFmpeg Configurations
-----------------------------
		<strong>use_video_rate</strong> : 1
<strong>use_video_bit_rate</strong> : 1
<strong>use_audio_rate</strong> : 1
<strong>use_audio_bit_rate</strong> : 1
<strong>use_audio_codec</strong> : 1
<strong>use_video_codec</strong> : 1
<strong>format</strong> : mp4
<strong>video_codec</strong> : libx264
<strong>audio_codec</strong> : libfdk_aac
<strong>audio_rate</strong> : 22050
<strong>audio_bitrate</strong> : 128000
<strong>video_rate</strong> : 
<strong>video_bitrate</strong> : 
<strong>video_bitrate_hd</strong> : 
<strong>normal_res</strong> : 
<strong>high_res</strong> : 
<strong>max_video_duration</strong> : 320
<strong>resize</strong> : max
<strong>outputPath</strong> : 2021/02/25/
<strong>cb_combo_res</strong> : 
<strong>gen_240</strong> : yes
<strong>gen_360</strong> : yes
<strong>gen_480</strong> : yes
<strong>gen_720</strong> : yes
<strong>gen_1080</strong> : yes


Starting Conversion
-------------------
		Started on 2021-02-25 13:34:49 - 2021 Feb 25

Checking File...
File : /var/www/vhosts/centx.app/httpdocs/files/conversion_queue/1614260084812ef.mp4

File Exists____video
--------------------
		Yes

Preparing file...
-----------------
		<strong>format</strong> : mov,mp4,m4a,3gp,3g2,mj2
<strong>duration</strong> : 105.73
<strong>size</strong> : 2681139
<strong>bitrate</strong> : 202859
<strong>video_width</strong> : 1278
<strong>video_height</strong> : 718
<strong>video_wh_ratio</strong> : 1.7799442896936
<strong>video_codec</strong> : h264
<strong>video_rate</strong> : 30
<strong>video_bitrate</strong> : 201829
<strong>video_color</strong> : N/A
<strong>audio_codec</strong> : 
<strong>audio_bitrate</strong> : 0
<strong>audio_rate</strong> : 0
<strong>audio_channels</strong> : 0
<strong>path</strong> : /var/www/vhosts/centx.app/httpdocs/files/conversion_queue/1614260084812ef.mp4
<strong>rotation</strong> : 0


Thumbs Generation ____
----------------------
		Starting

Thumbs Files ____ /var/www/vhosts/centx.app/httpdocs/files/conversion_queue/1614260084812ef.mp4 Resolutions: 
-------------------------------------------------------------------------------------------------------------
		/var/www/vhosts/centx.app/httpdocs/files/conversion_queue/1614260084812ef.mp4

==========================================
	Video Conversionvideo
==========================================

Getting Video Details Array: 
-----------------------------
		<strong>size</strong> : 2681139
<strong>duration</strong> : 105
<strong>bitrate</strong> : 199
<strong>format</strong> : mov,mp4,m4a,3gp,3g2,mj2
<strong>video_width</strong> : 1278
<strong>video_height</strong> : 718
<strong>video_wh_ratio</strong> : 1.7799442896936
<strong>video_codec</strong> : h264
<strong>audio_codec</strong> : 
<strong>audio_rate</strong> : 
<strong>audio_channels</strong> : 


Getting out : 
--------------
		ffmpeg version 3.4.8 Copyright (c) 2000-2020 the FFmpeg developers
  built with gcc 4.8.5 (GCC) 20150623 (Red Hat 4.8.5-39)
  configuration: --prefix=/usr --bindir=/usr/bin --datadir=/usr/share/ffmpeg --docdir=/usr/share/doc/ffmpeg --incdir=/usr/include/ffmpeg --libdir=/usr/lib64 --mandir=/usr/share/man --arch=x86_64 --optflags='-O2 -g -pipe -Wall -Wp,-D_FORTIFY_SOURCE=2 -fexceptions -fstack-protector-strong --param=ssp-buffer-size=4 -grecord-gcc-switches -m64 -mtune=generic' --extra-ldflags='-Wl,-z,relro ' --extra-cflags=' ' --enable-libopencore-amrnb --enable-libopencore-amrwb --enable-libvo-amrwbenc --enable-version3 --enable-bzlib --disable-crystalhd --enable-fontconfig --enable-gcrypt --enable-gnutls --enable-ladspa --enable-libass --enable-libbluray --enable-libcdio --enable-libdrm --enable-indev=jack --enable-libfreetype --enable-libfribidi --enable-libgsm --enable-libmp3lame --enable-nvenc --enable-openal --enable-opencl --enable-opengl --enable-libopenjpeg --enable-libopus --disable-encoder=libopus --enable-libpulse --enable-librsvg --enable-libsoxr --enable-libspeex --enable-libtheora --enable-libvorbis --enable-libv4l2 --enable-libvidstab --enable-libvpx --enable-libx264 --enable-libx265 --enable-libxvid --enable-libzvbi --enable-avfilter --enable-avresample --enable-libmodplug --enable-postproc --enable-pthreads --disable-static --enable-shared --enable-gpl --disable-debug --disable-stripping --shlibdir=/usr/lib64 --enable-libmfx --enable-runtime-cpudetect
  libavutil      55. 78.100 / 55. 78.100
  libavcodec     57.107.100 / 57.107.100
  libavformat    57. 83.100 / 57. 83.100
  libavdevice    57. 10.100 / 57. 10.100
  libavfilter     6.107.100 /  6.107.100
  libavresample   3.  7.  0 /  3.  7.  0
  libswscale      4.  8.100 /  4.  8.100
  libswresample   2.  9.100 /  2.  9.100
  libpostproc    54.  7.100 / 54.  7.100
Input #0, mov,mp4,m4a,3gp,3g2,mj2, from '/var/www/vhosts/centx.app/httpdocs/files/conversion_queue/1614260084812ef.mp4':
  Metadata:
    major_brand     : isom
    minor_version   : 512
    compatible_brands: isomiso2avc1mp41
    encoder         : Lavf58.64.100
  Duration: 00:01:45.73, start: 0.000000, bitrate: 202 kb/s
    Stream #0:0(eng): Video: h264 (Constrained Baseline) (avc1 / 0x31637661), yuv420p, 1278x718 [SAR 1:1 DAR 639:359], 201 kb/s, 30 fps, 30 tbr, 15360 tbn, 60 tbc (default)
    Metadata:
      handler_name    : VideoHandler
Output #0, null, to '/dev/null':
  Metadata:
    major_brand     : isom
    minor_version   : 512
    compatible_brands: isomiso2avc1mp41
    encoder         : Lavf57.83.100
    Stream #0:0(eng): Video: h264 (Constrained Baseline) (avc1 / 0x31637661), yuv420p, 1278x718 [SAR 1:1 DAR 639:359], q=2-31, 201 kb/s, 30 fps, 30 tbr, 15360 tbn, 15360 tbc (default)
    Metadata:
      handler_name    : VideoHandler
Stream mapping:
  Stream #0:0 -> #0:0 (copy)
Press [q] to stop, [?] for help
frame= 3172 fps=0.0 q=-1.0 Lsize=N/A time=00:01:45.70 bitrate=N/A speed=7.96e+03x    
video:2605kB audio:0kB subtitle:0kB other streams:0kB global headers:0kB muxing overhead: unknown


Low SD second Execute Full Command : 
-------------------------------------
		
======Converting Video=========


=======Low Resolution Conversion=======


 Sarting : Generating Low resolution video @ 2021-02-25 13:34:51 

 Converting Video SD File  

 Command : /bin/ffmpeg -i /var/www/vhosts/centx.app/httpdocs/files/conversion_queue/1614260084812ef.mp4 -vcodec libx264 -acodec libfdk_aac -s 1278x718 -preset medium -f mp4 -b:a 128000 -minrate 128000 -maxrate 128000 -ar 22050 /var/www/vhosts/centx.app/httpdocs/files/videos/2021/02/25//1614260084812ef-sd.mp4 

 ffmpeg output : ffmpeg version 3.4.8 Copyright (c) 2000-2020 the FFmpeg developers
  built with gcc 4.8.5 (GCC) 20150623 (Red Hat 4.8.5-39)
  configuration: --prefix=/usr --bindir=/usr/bin --datadir=/usr/share/ffmpeg --docdir=/usr/share/doc/ffmpeg --incdir=/usr/include/ffmpeg --libdir=/usr/lib64 --mandir=/usr/share/man --arch=x86_64 --optflags='-O2 -g -pipe -Wall -Wp,-D_FORTIFY_SOURCE=2 -fexceptions -fstack-protector-strong --param=ssp-buffer-size=4 -grecord-gcc-switches -m64 -mtune=generic' --extra-ldflags='-Wl,-z,relro ' --extra-cflags=' ' --enable-libopencore-amrnb --enable-libopencore-amrwb --enable-libvo-amrwbenc --enable-version3 --enable-bzlib --disable-crystalhd --enable-fontconfig --enable-gcrypt --enable-gnutls --enable-ladspa --enable-libass --enable-libbluray --enable-libcdio --enable-libdrm --enable-indev=jack --enable-libfreetype --enable-libfribidi --enable-libgsm --enable-libmp3lame --enable-nvenc --enable-openal --enable-opencl --enable-opengl --enable-libopenjpeg --enable-libopus --disable-encoder=libopus --enable-libpulse --enable-librsvg --enable-libsoxr --enable-libspeex --enable-libtheora --enable-libvorbis --enable-libv4l2 --enable-libvidstab --enable-libvpx --enable-libx264 --enable-libx265 --enable-libxvid --enable-libzvbi --enable-avfilter --enable-avresample --enable-libmodplug --enable-postproc --enable-pthreads --disable-static --enable-shared --enable-gpl --disable-debug --disable-stripping --shlibdir=/usr/lib64 --enable-libmfx --enable-runtime-cpudetect
  libavutil      55. 78.100 / 55. 78.100
  libavcodec     57.107.100 / 57.107.100
  libavformat    57. 83.100 / 57. 83.100
  libavdevice    57. 10.100 / 57. 10.100
  libavfilter     6.107.100 /  6.107.100
  libavresample   3.  7.  0 /  3.  7.  0
  libswscale      4.  8.100 /  4.  8.100
  libswresample   2.  9.100 /  2.  9.100
  libpostproc    54.  7.100 / 54.  7.100
Input #0, mov,mp4,m4a,3gp,3g2,mj2, from '/var/www/vhosts/centx.app/httpdocs/files/conversion_queue/1614260084812ef.mp4':
  Metadata:
    major_brand     : isom
    minor_version   : 512
    compatible_brands: isomiso2avc1mp41
    encoder         : Lavf58.64.100
  Duration: 00:01:45.73, start: 0.000000, bitrate: 202 kb/s
    Stream #0:0(eng): Video: h264 (Constrained Baseline) (avc1 / 0x31637661), yuv420p, 1278x718 [SAR 1:1 DAR 639:359], 201 kb/s, 30 fps, 30 tbr, 15360 tbn, 60 tbc (default)
    Metadata:
      handler_name    : VideoHandler
Codec AVOption b (set bitrate (in bits/s)) specified for output file #0 (/var/www/vhosts/centx.app/httpdocs/files/videos/2021/02/25//1614260084812ef-sd.mp4) has not been used for any stream. The most likely reason is either wrong type (e.g. a video option with no video streams) or that it is a private option of some encoder which was not actually used for any stream.
Stream mapping:
  Stream #0:0 -> #0:0 (h264 (native) -> h264 (libx264))
Press [q] to stop, [?] for help
[libx264 @ 0x78c880] VBV maxrate specified, but no bufsize, ignored
[libx264 @ 0x78c880] using SAR=1/1
[libx264 @ 0x78c880] using cpu capabilities: MMX2 SSE2Fast SSSE3 SSE4.2 AVX FMA3 AVX2 LZCNT BMI2
[libx264 @ 0x78c880] profile High, level 3.1
[libx264 @ 0x78c880] 264 - core 148 r2795 aaa9aa8 - H.264/MPEG-4 AVC codec - Copyleft 2003-2017 - http://www.videolan.org/x264.html - options: cabac=1 ref=3 deblock=1:0:0 analyse=0x3:0x113 me=hex subme=7 psy=1 psy_rd=1.00:0.00 mixed_ref=1 me_range=16 chroma_me=1 trellis=1 8x8dct=1 cqm=0 deadzone=21,11 fast_pskip=1 chroma_qp_offset=-2 threads=3 lookahead_threads=1 sliced_threads=0 nr=0 decimate=1 interlaced=0 bluray_compat=0 constrained_intra=0 bframes=3 b_pyramid=2 b_adapt=1 b_bias=0 direct=1 weightb=1 open_gop=0 weightp=2 keyint=250 keyint_min=25 scenecut=40 intra_refresh=0 rc_lookahead=40 rc=crf mbtree=1 crf=23.0 qcomp=0.60 qpmin=0 qpmax=69 qpstep=4 ip_ratio=1.40 aq=1:1.00
Output #0, mp4, to '/var/www/vhosts/centx.app/httpdocs/files/videos/2021/02/25//1614260084812ef-sd.mp4':
  Metadata:
    major_brand     : isom
    minor_version   : 512
    compatible_brands: isomiso2avc1mp41
    encoder         : Lavf57.83.100
    Stream #0:0(eng): Video: h264 (libx264) (avc1 / 0x31637661), yuv420p, 1278x718 [SAR 1:1 DAR 639:359], q=-1--1, 30 fps, 15360 tbn, 30 tbc (default)
    Metadata:
      handler_name    : VideoHandler
      encoder         : Lavc57.107.100 libx264
    Side data:
      cpb: bitrate max/min/avg: 128000/0/0 buffer size: 0 vbv_delay: -1
frame=   67 fps=0.0 q=29.0 size=       0kB time=00:00:00.56 bitrate=   0.7kbits/s speed=1.11x    frame=  104 fps=101 q=29.0 size=       0kB time=00:00:01.80 bitrate=   0.2kbits/s speed=1.75x    frame=  143 fps= 92 q=29.0 size=       0kB time=00:00:03.10 bitrate=   0.1kbits/s speed=   2x    frame=  180 fps= 87 q=29.0 size=       0kB time=00:00:04.33 bitrate=   0.1kbits/s speed=2.09x    frame=  215 fps= 83 q=29.0 size=       0kB time=00:00:05.50 bitrate=   0.1kbits/s speed=2.13x    frame=  272 fps= 88 q=29.0 size=       0kB time=00:00:07.40 bitrate=   0.1kbits/s speed= 2.4x    frame=  326 fps= 91 q=29.0 size=       0kB time=00:00:09.20 bitrate=   0.0kbits/s speed=2.56x    frame=  375 fps= 92 q=29.0 size=       0kB time=00:00:10.83 bitrate=   0.0kbits/s speed=2.64x    frame=  422 fps= 92 q=29.0 size=       0kB time=00:00:12.40 bitrate=   0.0kbits/s speed= 2.7x    frame=  469 fps= 92 q=29.0 size=       0kB time=00:00:13.96 bitrate=   0.0kbits/s speed=2.74x    frame=  521 fps= 93 q=29.0 size=       0kB time=00:00:15.70 bitrate=   0.0kbits/s speed=2.79x    frame=  567 fps= 93 q=29.0 size=       0kB time=00:00:17.23 bitrate=   0.0kbits/s speed=2.81x    frame=  617 fps= 93 q=29.0 size=       0kB time=00:00:18.90 bitrate=   0.0kbits/s speed=2.85x    frame=  665 fps= 93 q=29.0 size=       0kB time=00:00:20.50 bitrate=   0.0kbits/s speed=2.87x    frame=  711 fps= 93 q=29.0 size=       0kB time=00:00:22.03 bitrate=   0.0kbits/s speed=2.88x    frame=  754 fps= 92 q=29.0 size=     256kB time=00:00:23.46 bitrate=  89.4kbits/s speed=2.87x    frame=  798 fps= 92 q=29.0 size=     256kB time=00:00:24.93 bitrate=  84.1kbits/s speed=2.87x    frame=  842 fps= 92 q=29.0 size=     256kB time=00:00:26.40 bitrate=  79.5kbits/s speed=2.87x    frame=  886 fps= 91 q=29.0 size=     256kB time=00:00:27.86 bitrate=  75.3kbits/s speed=2.87x    frame=  930 fps= 91 q=29.0 size=     256kB time=00:00:29.33 bitrate=  71.5kbits/s speed=2.87x    frame=  973 fps= 91 q=29.0 size=     256kB time=00:00:30.76 bitrate=  68.2kbits/s speed=2.87x    frame= 1016 fps= 91 q=29.0 size=     256kB time=00:00:32.20 bitrate=  65.1kbits/s speed=2.87x    frame= 1063 fps= 91 q=29.0 size=     256kB time=00:00:33.76 bitrate=  62.1kbits/s speed=2.88x    frame= 1103 fps= 90 q=29.0 size=     256kB time=00:00:35.10 bitrate=  59.8kbits/s speed=2.87x    frame= 1144 fps= 90 q=29.0 size=     256kB time=00:00:36.46 bitrate=  57.5kbits/s speed=2.86x    frame= 1187 fps= 90 q=29.0 size=     256kB time=00:00:37.90 bitrate=  55.3kbits/s speed=2.86x    frame= 1229 fps= 89 q=29.0 size=     256kB time=00:00:39.30 bitrate=  53.4kbits/s speed=2.86x    frame= 1272 fps= 89 q=29.0 size=     256kB time=00:00:40.73 bitrate=  51.5kbits/s speed=2.85x    frame= 1315 fps= 89 q=29.0 size=     256kB time=00:00:42.16 bitrate=  49.7kbits/s speed=2.85x    frame= 1360 fps= 89 q=29.0 size=     256kB time=00:00:43.66 bitrate=  48.0kbits/s speed=2.85x    frame= 1408 fps= 89 q=29.0 size=     256kB time=00:00:45.26 bitrate=  46.3kbits/s speed=2.86x    frame= 1456 fps= 89 q=29.0 size=     256kB time=00:00:46.86 bitrate=  44.8kbits/s speed=2.87x    frame= 1497 fps= 89 q=29.0 size=     512kB time=00:00:48.23 bitrate=  87.0kbits/s speed=2.87x    frame= 1537 fps= 89 q=29.0 size=     512kB time=00:00:49.56 bitrate=  84.6kbits/s speed=2.86x    frame= 1577 fps= 88 q=29.0 size=     512kB time=00:00:50.90 bitrate=  82.4kbits/s speed=2.85x    frame= 1617 fps= 88 q=29.0 size=     512kB time=00:00:52.23 bitrate=  80.3kbits/s speed=2.85x    frame= 1657 fps= 88 q=29.0 size=     512kB time=00:00:53.56 bitrate=  78.3kbits/s speed=2.84x    frame= 1697 fps= 88 q=29.0 size=     512kB time=00:00:54.90 bitrate=  76.4kbits/s speed=2.83x    frame= 1732 fps= 87 q=29.0 size=     512kB time=00:00:56.06 bitrate=  74.8kbits/s speed=2.82x    frame= 1775 fps= 87 q=29.0 size=     512kB time=00:00:57.50 bitrate=  73.0kbits/s speed=2.82x    frame= 1816 fps= 87 q=29.0 size=     512kB time=00:00:58.86 bitrate=  71.3kbits/s speed=2.82x    frame= 1858 fps= 87 q=29.0 size=     512kB time=00:01:00.26 bitrate=  69.6kbits/s speed=2.82x    frame= 1897 fps= 87 q=29.0 size=     512kB time=00:01:01.56 bitrate=  68.1kbits/s speed=2.81x    frame= 1939 fps= 87 q=29.0 size=     512kB time=00:01:02.96 bitrate=  66.6kbits/s speed=2.81x    frame= 1979 fps= 86 q=29.0 size=     512kB time=00:01:04.30 bitrate=  65.2kbits/s speed=2.81x    frame= 2024 fps= 86 q=29.0 size=     512kB time=00:01:05.80 bitrate=  63.7kbits/s speed=2.81x    frame= 2066 fps= 86 q=29.0 size=     512kB time=00:01:07.20 bitrate=  62.4kbits/s speed=2.81x    frame= 2107 fps= 86 q=29.0 size=     512kB time=00:01:08.56 bitrate=  61.2kbits/s speed=2.81x    frame= 2151 fps= 86 q=29.0 size=     768kB time=00:01:10.03 bitrate=  89.8kbits/s speed=2.81x    frame= 2195 fps= 86 q=29.0 size=     768kB time=00:01:11.50 bitrate=  88.0kbits/s speed=2.81x    frame= 2239 fps= 86 q=29.0 size=     768kB time=00:01:12.96 bitrate=  86.2kbits/s speed=2.81x    frame= 2281 fps= 86 q=29.0 size=     768kB time=00:01:14.36 bitrate=  84.6kbits/s speed=2.81x    frame= 2332 fps= 86 q=29.0 size=     768kB time=00:01:16.06 bitrate=  82.7kbits/s speed=2.82x    frame= 2381 fps= 86 q=29.0 size=     768kB time=00:01:17.70 bitrate=  81.0kbits/s speed=2.82x    frame= 2428 fps= 87 q=29.0 size=     768kB time=00:01:19.26 bitrate=  79.4kbits/s speed=2.83x    frame= 2473 fps= 87 q=29.0 size=     768kB time=00:01:20.76 bitrate=  77.9kbits/s speed=2.83x    frame= 2519 fps= 87 q=29.0 size=     768kB time=00:01:22.30 bitrate=  76.5kbits/s speed=2.83x    frame= 2565 fps= 87 q=29.0 size=     768kB time=00:01:23.83 bitrate=  75.1kbits/s speed=2.84x    frame= 2610 fps= 87 q=29.0 size=     768kB time=00:01:25.33 bitrate=  73.7kbits/s speed=2.84x    frame= 2657 fps= 87 q=29.0 size=     768kB time=00:01:26.90 bitrate=  72.4kbits/s speed=2.84x    frame= 2701 fps= 87 q=29.0 size=     768kB time=00:01:28.36 bitrate=  71.2kbits/s speed=2.84x    frame= 2753 fps= 87 q=29.0 size=     768kB time=00:01:30.10 bitrate=  69.8kbits/s speed=2.85x    frame= 2804 fps= 87 q=29.0 size=     768kB time=00:01:31.80 bitrate=  68.5kbits/s speed=2.86x    frame= 2840 fps= 87 q=29.0 size=     768kB time=00:01:33.00 bitrate=  67.7kbits/s speed=2.85x    frame= 2884 fps= 87 q=29.0 size=     768kB time=00:01:34.46 bitrate=  66.6kbits/s speed=2.85x    frame= 2921 fps= 87 q=29.0 size=    1024kB time=00:01:35.70 bitrate=  87.7kbits/s speed=2.85x    frame= 2961 fps= 87 q=29.0 size=    1024kB time=00:01:37.03 bitrate=  86.5kbits/s speed=2.84x    frame= 3001 fps= 87 q=29.0 size=    1024kB time=00:01:38.36 bitrate=  85.3kbits/s speed=2.84x    frame= 3041 fps= 86 q=29.0 size=    1024kB time=00:01:39.70 bitrate=  84.1kbits/s speed=2.84x    frame= 3081 fps= 86 q=29.0 size=    1024kB time=00:01:41.03 bitrate=  83.0kbits/s speed=2.83x    frame= 3119 fps= 86 q=29.0 size=    1024kB time=00:01:42.30 bitrate=  82.0kbits/s speed=2.83x    frame= 3158 fps= 86 q=29.0 size=    1024kB time=00:01:43.60 bitrate=  81.0kbits/s speed=2.82x    frame= 3172 fps= 85 q=-1.0 Lsize=    1201kB time=00:01:45.63 bitrate=  93.1kbits/s speed=2.83x    
video:1163kB audio:0kB subtitle:0kB other streams:0kB global headers:0kB muxing overhead: 3.236843%
[libx264 @ 0x78c880] frame I:18    Avg QP:12.56  size: 34215
[libx264 @ 0x78c880] frame P:842   Avg QP:14.90  size:   474
[libx264 @ 0x78c880] frame B:2312  Avg QP:16.67  size:    76
[libx264 @ 0x78c880] consecutive B-frames:  2.3%  1.2%  1.0% 95.5%
[libx264 @ 0x78c880] mb I  I16..4: 56.8% 26.5% 16.6%
[libx264 @ 0x78c880] mb P  I16..4:  0.2%  0.2%  0.1%  P16..4:  0.9%  0.1%  0.1%  0.0%  0.0%    skip:98.4%
[libx264 @ 0x78c880] mb B  I16..4:  0.0%  0.0%  0.0%  B16..8:  1.1%  0.0%  0.0%  direct: 0.0%  skip:98.9%  L0:65.0% L1:34.9% BI: 0.1%
[libx264 @ 0x78c880] 8x8 transform intra:30.7% inter:41.0%
[libx264 @ 0x78c880] coded y,uvDC,uvAC intra: 13.8% 13.8% 11.7% inter: 0.1% 0.2% 0.1%
[libx264 @ 0x78c880] i16 v,h,dc,p: 77% 19%  4%  1%
[libx264 @ 0x78c880] i8 v,h,dc,ddl,ddr,vr,hd,vl,hu: 43% 11% 45%  0%  0%  0%  0%  0%  0%
[libx264 @ 0x78c880] i4 v,h,dc,ddl,ddr,vr,hd,vl,hu: 36% 29% 14%  3%  4%  4%  4%  3%  4%
[libx264 @ 0x78c880] i8c dc,h,v,p: 82% 10%  7%  1%
[libx264 @ 0x78c880] Weighted P-Frames: Y:0.2% UV:0.2%
[libx264 @ 0x78c880] ref P L0: 86.3%  3.9%  7.8%  1.8%  0.2%
[libx264 @ 0x78c880] ref B L0: 41.2% 58.5%  0.3%
[libx264 @ 0x78c880] ref B L1: 99.0%  1.0%
[libx264 @ 0x78c880] kb/s:90.07
 


Conversion Ouput
----------------
		
======Converting Video=========


=======Low Resolution Conversion=======


 Sarting : Generating Low resolution video @ 2021-02-25 13:34:51 

 Converting Video SD File  

 Command : /bin/ffmpeg -i /var/www/vhosts/centx.app/httpdocs/files/conversion_queue/1614260084812ef.mp4 -vcodec libx264 -acodec libfdk_aac -s 1278x718 -preset medium -f mp4 -b:a 128000 -minrate 128000 -maxrate 128000 -ar 22050 /var/www/vhosts/centx.app/httpdocs/files/videos/2021/02/25//1614260084812ef-sd.mp4 

 ffmpeg output : ffmpeg version 3.4.8 Copyright (c) 2000-2020 the FFmpeg developers
  built with gcc 4.8.5 (GCC) 20150623 (Red Hat 4.8.5-39)
  configuration: --prefix=/usr --bindir=/usr/bin --datadir=/usr/share/ffmpeg --docdir=/usr/share/doc/ffmpeg --incdir=/usr/include/ffmpeg --libdir=/usr/lib64 --mandir=/usr/share/man --arch=x86_64 --optflags='-O2 -g -pipe -Wall -Wp,-D_FORTIFY_SOURCE=2 -fexceptions -fstack-protector-strong --param=ssp-buffer-size=4 -grecord-gcc-switches -m64 -mtune=generic' --extra-ldflags='-Wl,-z,relro ' --extra-cflags=' ' --enable-libopencore-amrnb --enable-libopencore-amrwb --enable-libvo-amrwbenc --enable-version3 --enable-bzlib --disable-crystalhd --enable-fontconfig --enable-gcrypt --enable-gnutls --enable-ladspa --enable-libass --enable-libbluray --enable-libcdio --enable-libdrm --enable-indev=jack --enable-libfreetype --enable-libfribidi --enable-libgsm --enable-libmp3lame --enable-nvenc --enable-openal --enable-opencl --enable-opengl --enable-libopenjpeg --enable-libopus --disable-encoder=libopus --enable-libpulse --enable-librsvg --enable-libsoxr --enable-libspeex --enable-libtheora --enable-libvorbis --enable-libv4l2 --enable-libvidstab --enable-libvpx --enable-libx264 --enable-libx265 --enable-libxvid --enable-libzvbi --enable-avfilter --enable-avresample --enable-libmodplug --enable-postproc --enable-pthreads --disable-static --enable-shared --enable-gpl --disable-debug --disable-stripping --shlibdir=/usr/lib64 --enable-libmfx --enable-runtime-cpudetect
  libavutil      55. 78.100 / 55. 78.100
  libavcodec     57.107.100 / 57.107.100
  libavformat    57. 83.100 / 57. 83.100
  libavdevice    57. 10.100 / 57. 10.100
  libavfilter     6.107.100 /  6.107.100
  libavresample   3.  7.  0 /  3.  7.  0
  libswscale      4.  8.100 /  4.  8.100
  libswresample   2.  9.100 /  2.  9.100
  libpostproc    54.  7.100 / 54.  7.100
Input #0, mov,mp4,m4a,3gp,3g2,mj2, from '/var/www/vhosts/centx.app/httpdocs/files/conversion_queue/1614260084812ef.mp4':
  Metadata:
    major_brand     : isom
    minor_version   : 512
    compatible_brands: isomiso2avc1mp41
    encoder         : Lavf58.64.100
  Duration: 00:01:45.73, start: 0.000000, bitrate: 202 kb/s
    Stream #0:0(eng): Video: h264 (Constrained Baseline) (avc1 / 0x31637661), yuv420p, 1278x718 [SAR 1:1 DAR 639:359], 201 kb/s, 30 fps, 30 tbr, 15360 tbn, 60 tbc (default)
    Metadata:
      handler_name    : VideoHandler
Codec AVOption b (set bitrate (in bits/s)) specified for output file #0 (/var/www/vhosts/centx.app/httpdocs/files/videos/2021/02/25//1614260084812ef-sd.mp4) has not been used for any stream. The most likely reason is either wrong type (e.g. a video option with no video streams) or that it is a private option of some encoder which was not actually used for any stream.
Stream mapping:
  Stream #0:0 -> #0:0 (h264 (native) -> h264 (libx264))
Press [q] to stop, [?] for help
[libx264 @ 0x78c880] VBV maxrate specified, but no bufsize, ignored
[libx264 @ 0x78c880] using SAR=1/1
[libx264 @ 0x78c880] using cpu capabilities: MMX2 SSE2Fast SSSE3 SSE4.2 AVX FMA3 AVX2 LZCNT BMI2
[libx264 @ 0x78c880] profile High, level 3.1
[libx264 @ 0x78c880] 264 - core 148 r2795 aaa9aa8 - H.264/MPEG-4 AVC codec - Copyleft 2003-2017 - http://www.videolan.org/x264.html - options: cabac=1 ref=3 deblock=1:0:0 analyse=0x3:0x113 me=hex subme=7 psy=1 psy_rd=1.00:0.00 mixed_ref=1 me_range=16 chroma_me=1 trellis=1 8x8dct=1 cqm=0 deadzone=21,11 fast_pskip=1 chroma_qp_offset=-2 threads=3 lookahead_threads=1 sliced_threads=0 nr=0 decimate=1 interlaced=0 bluray_compat=0 constrained_intra=0 bframes=3 b_pyramid=2 b_adapt=1 b_bias=0 direct=1 weightb=1 open_gop=0 weightp=2 keyint=250 keyint_min=25 scenecut=40 intra_refresh=0 rc_lookahead=40 rc=crf mbtree=1 crf=23.0 qcomp=0.60 qpmin=0 qpmax=69 qpstep=4 ip_ratio=1.40 aq=1:1.00
Output #0, mp4, to '/var/www/vhosts/centx.app/httpdocs/files/videos/2021/02/25//1614260084812ef-sd.mp4':
  Metadata:
    major_brand     : isom
    minor_version   : 512
    compatible_brands: isomiso2avc1mp41
    encoder         : Lavf57.83.100
    Stream #0:0(eng): Video: h264 (libx264) (avc1 / 0x31637661), yuv420p, 1278x718 [SAR 1:1 DAR 639:359], q=-1--1, 30 fps, 15360 tbn, 30 tbc (default)
    Metadata:
      handler_name    : VideoHandler
      encoder         : Lavc57.107.100 libx264
    Side data:
      cpb: bitrate max/min/avg: 128000/0/0 buffer size: 0 vbv_delay: -1
frame=   67 fps=0.0 q=29.0 size=       0kB time=00:00:00.56 bitrate=   0.7kbits/s speed=1.11x    frame=  104 fps=101 q=29.0 size=       0kB time=00:00:01.80 bitrate=   0.2kbits/s speed=1.75x    frame=  143 fps= 92 q=29.0 size=       0kB time=00:00:03.10 bitrate=   0.1kbits/s speed=   2x    frame=  180 fps= 87 q=29.0 size=       0kB time=00:00:04.33 bitrate=   0.1kbits/s speed=2.09x    frame=  215 fps= 83 q=29.0 size=       0kB time=00:00:05.50 bitrate=   0.1kbits/s speed=2.13x    frame=  272 fps= 88 q=29.0 size=       0kB time=00:00:07.40 bitrate=   0.1kbits/s speed= 2.4x    frame=  326 fps= 91 q=29.0 size=       0kB time=00:00:09.20 bitrate=   0.0kbits/s speed=2.56x    frame=  375 fps= 92 q=29.0 size=       0kB time=00:00:10.83 bitrate=   0.0kbits/s speed=2.64x    frame=  422 fps= 92 q=29.0 size=       0kB time=00:00:12.40 bitrate=   0.0kbits/s speed= 2.7x    frame=  469 fps= 92 q=29.0 size=       0kB time=00:00:13.96 bitrate=   0.0kbits/s speed=2.74x    frame=  521 fps= 93 q=29.0 size=       0kB time=00:00:15.70 bitrate=   0.0kbits/s speed=2.79x    frame=  567 fps= 93 q=29.0 size=       0kB time=00:00:17.23 bitrate=   0.0kbits/s speed=2.81x    frame=  617 fps= 93 q=29.0 size=       0kB time=00:00:18.90 bitrate=   0.0kbits/s speed=2.85x    frame=  665 fps= 93 q=29.0 size=       0kB time=00:00:20.50 bitrate=   0.0kbits/s speed=2.87x    frame=  711 fps= 93 q=29.0 size=       0kB time=00:00:22.03 bitrate=   0.0kbits/s speed=2.88x    frame=  754 fps= 92 q=29.0 size=     256kB time=00:00:23.46 bitrate=  89.4kbits/s speed=2.87x    frame=  798 fps= 92 q=29.0 size=     256kB time=00:00:24.93 bitrate=  84.1kbits/s speed=2.87x    frame=  842 fps= 92 q=29.0 size=     256kB time=00:00:26.40 bitrate=  79.5kbits/s speed=2.87x    frame=  886 fps= 91 q=29.0 size=     256kB time=00:00:27.86 bitrate=  75.3kbits/s speed=2.87x    frame=  930 fps= 91 q=29.0 size=     256kB time=00:00:29.33 bitrate=  71.5kbits/s speed=2.87x    frame=  973 fps= 91 q=29.0 size=     256kB time=00:00:30.76 bitrate=  68.2kbits/s speed=2.87x    frame= 1016 fps= 91 q=29.0 size=     256kB time=00:00:32.20 bitrate=  65.1kbits/s speed=2.87x    frame= 1063 fps= 91 q=29.0 size=     256kB time=00:00:33.76 bitrate=  62.1kbits/s speed=2.88x    frame= 1103 fps= 90 q=29.0 size=     256kB time=00:00:35.10 bitrate=  59.8kbits/s speed=2.87x    frame= 1144 fps= 90 q=29.0 size=     256kB time=00:00:36.46 bitrate=  57.5kbits/s speed=2.86x    frame= 1187 fps= 90 q=29.0 size=     256kB time=00:00:37.90 bitrate=  55.3kbits/s speed=2.86x    frame= 1229 fps= 89 q=29.0 size=     256kB time=00:00:39.30 bitrate=  53.4kbits/s speed=2.86x    frame= 1272 fps= 89 q=29.0 size=     256kB time=00:00:40.73 bitrate=  51.5kbits/s speed=2.85x    frame= 1315 fps= 89 q=29.0 size=     256kB time=00:00:42.16 bitrate=  49.7kbits/s speed=2.85x    frame= 1360 fps= 89 q=29.0 size=     256kB time=00:00:43.66 bitrate=  48.0kbits/s speed=2.85x    frame= 1408 fps= 89 q=29.0 size=     256kB time=00:00:45.26 bitrate=  46.3kbits/s speed=2.86x    frame= 1456 fps= 89 q=29.0 size=     256kB time=00:00:46.86 bitrate=  44.8kbits/s speed=2.87x    frame= 1497 fps= 89 q=29.0 size=     512kB time=00:00:48.23 bitrate=  87.0kbits/s speed=2.87x    frame= 1537 fps= 89 q=29.0 size=     512kB time=00:00:49.56 bitrate=  84.6kbits/s speed=2.86x    frame= 1577 fps= 88 q=29.0 size=     512kB time=00:00:50.90 bitrate=  82.4kbits/s speed=2.85x    frame= 1617 fps= 88 q=29.0 size=     512kB time=00:00:52.23 bitrate=  80.3kbits/s speed=2.85x    frame= 1657 fps= 88 q=29.0 size=     512kB time=00:00:53.56 bitrate=  78.3kbits/s speed=2.84x    frame= 1697 fps= 88 q=29.0 size=     512kB time=00:00:54.90 bitrate=  76.4kbits/s speed=2.83x    frame= 1732 fps= 87 q=29.0 size=     512kB time=00:00:56.06 bitrate=  74.8kbits/s speed=2.82x    frame= 1775 fps= 87 q=29.0 size=     512kB time=00:00:57.50 bitrate=  73.0kbits/s speed=2.82x    frame= 1816 fps= 87 q=29.0 size=     512kB time=00:00:58.86 bitrate=  71.3kbits/s speed=2.82x    frame= 1858 fps= 87 q=29.0 size=     512kB time=00:01:00.26 bitrate=  69.6kbits/s speed=2.82x    frame= 1897 fps= 87 q=29.0 size=     512kB time=00:01:01.56 bitrate=  68.1kbits/s speed=2.81x    frame= 1939 fps= 87 q=29.0 size=     512kB time=00:01:02.96 bitrate=  66.6kbits/s speed=2.81x    frame= 1979 fps= 86 q=29.0 size=     512kB time=00:01:04.30 bitrate=  65.2kbits/s speed=2.81x    frame= 2024 fps= 86 q=29.0 size=     512kB time=00:01:05.80 bitrate=  63.7kbits/s speed=2.81x    frame= 2066 fps= 86 q=29.0 size=     512kB time=00:01:07.20 bitrate=  62.4kbits/s speed=2.81x    frame= 2107 fps= 86 q=29.0 size=     512kB time=00:01:08.56 bitrate=  61.2kbits/s speed=2.81x    frame= 2151 fps= 86 q=29.0 size=     768kB time=00:01:10.03 bitrate=  89.8kbits/s speed=2.81x    frame= 2195 fps= 86 q=29.0 size=     768kB time=00:01:11.50 bitrate=  88.0kbits/s speed=2.81x    frame= 2239 fps= 86 q=29.0 size=     768kB time=00:01:12.96 bitrate=  86.2kbits/s speed=2.81x    frame= 2281 fps= 86 q=29.0 size=     768kB time=00:01:14.36 bitrate=  84.6kbits/s speed=2.81x    frame= 2332 fps= 86 q=29.0 size=     768kB time=00:01:16.06 bitrate=  82.7kbits/s speed=2.82x    frame= 2381 fps= 86 q=29.0 size=     768kB time=00:01:17.70 bitrate=  81.0kbits/s speed=2.82x    frame= 2428 fps= 87 q=29.0 size=     768kB time=00:01:19.26 bitrate=  79.4kbits/s speed=2.83x    frame= 2473 fps= 87 q=29.0 size=     768kB time=00:01:20.76 bitrate=  77.9kbits/s speed=2.83x    frame= 2519 fps= 87 q=29.0 size=     768kB time=00:01:22.30 bitrate=  76.5kbits/s speed=2.83x    frame= 2565 fps= 87 q=29.0 size=     768kB time=00:01:23.83 bitrate=  75.1kbits/s speed=2.84x    frame= 2610 fps= 87 q=29.0 size=     768kB time=00:01:25.33 bitrate=  73.7kbits/s speed=2.84x    frame= 2657 fps= 87 q=29.0 size=     768kB time=00:01:26.90 bitrate=  72.4kbits/s speed=2.84x    frame= 2701 fps= 87 q=29.0 size=     768kB time=00:01:28.36 bitrate=  71.2kbits/s speed=2.84x    frame= 2753 fps= 87 q=29.0 size=     768kB time=00:01:30.10 bitrate=  69.8kbits/s speed=2.85x    frame= 2804 fps= 87 q=29.0 size=     768kB time=00:01:31.80 bitrate=  68.5kbits/s speed=2.86x    frame= 2840 fps= 87 q=29.0 size=     768kB time=00:01:33.00 bitrate=  67.7kbits/s speed=2.85x    frame= 2884 fps= 87 q=29.0 size=     768kB time=00:01:34.46 bitrate=  66.6kbits/s speed=2.85x    frame= 2921 fps= 87 q=29.0 size=    1024kB time=00:01:35.70 bitrate=  87.7kbits/s speed=2.85x    frame= 2961 fps= 87 q=29.0 size=    1024kB time=00:01:37.03 bitrate=  86.5kbits/s speed=2.84x    frame= 3001 fps= 87 q=29.0 size=    1024kB time=00:01:38.36 bitrate=  85.3kbits/s speed=2.84x    frame= 3041 fps= 86 q=29.0 size=    1024kB time=00:01:39.70 bitrate=  84.1kbits/s speed=2.84x    frame= 3081 fps= 86 q=29.0 size=    1024kB time=00:01:41.03 bitrate=  83.0kbits/s speed=2.83x    frame= 3119 fps= 86 q=29.0 size=    1024kB time=00:01:42.30 bitrate=  82.0kbits/s speed=2.83x    frame= 3158 fps= 86 q=29.0 size=    1024kB time=00:01:43.60 bitrate=  81.0kbits/s speed=2.82x    frame= 3172 fps= 85 q=-1.0 Lsize=    1201kB time=00:01:45.63 bitrate=  93.1kbits/s speed=2.83x    
video:1163kB audio:0kB subtitle:0kB other streams:0kB global headers:0kB muxing overhead: 3.236843%
[libx264 @ 0x78c880] frame I:18    Avg QP:12.56  size: 34215
[libx264 @ 0x78c880] frame P:842   Avg QP:14.90  size:   474
[libx264 @ 0x78c880] frame B:2312  Avg QP:16.67  size:    76
[libx264 @ 0x78c880] consecutive B-frames:  2.3%  1.2%  1.0% 95.5%
[libx264 @ 0x78c880] mb I  I16..4: 56.8% 26.5% 16.6%
[libx264 @ 0x78c880] mb P  I16..4:  0.2%  0.2%  0.1%  P16..4:  0.9%  0.1%  0.1%  0.0%  0.0%    skip:98.4%
[libx264 @ 0x78c880] mb B  I16..4:  0.0%  0.0%  0.0%  B16..8:  1.1%  0.0%  0.0%  direct: 0.0%  skip:98.9%  L0:65.0% L1:34.9% BI: 0.1%
[libx264 @ 0x78c880] 8x8 transform intra:30.7% inter:41.0%
[libx264 @ 0x78c880] coded y,uvDC,uvAC intra: 13.8% 13.8% 11.7% inter: 0.1% 0.2% 0.1%
[libx264 @ 0x78c880] i16 v,h,dc,p: 77% 19%  4%  1%
[libx264 @ 0x78c880] i8 v,h,dc,ddl,ddr,vr,hd,vl,hu: 43% 11% 45%  0%  0%  0%  0%  0%  0%
[libx264 @ 0x78c880] i4 v,h,dc,ddl,ddr,vr,hd,vl,hu: 36% 29% 14%  3%  4%  4%  4%  3%  4%
[libx264 @ 0x78c880] i8c dc,h,v,p: 82% 10%  7%  1%
[libx264 @ 0x78c880] Weighted P-Frames: Y:0.2% UV:0.2%
[libx264 @ 0x78c880] ref P L0: 86.3%  3.9%  7.8%  1.8%  0.2%
[libx264 @ 0x78c880] ref B L0: 41.2% 58.5%  0.3%
[libx264 @ 0x78c880] ref B L1: 99.0%  1.0%
[libx264 @ 0x78c880] kb/s:90.07
 

 Sarting : MP4Box Conversion for SD 

 MP4Box Command : /usr/bin/MP4Box -inter 0.5 /var/www/vhosts/centx.app/httpdocs/files/videos/2021/02/25//1614260084812ef-sd.mp4  -tmp /var/www/vhosts/centx.app/httpdocs/files/temp 

 output : Saving /var/www/vhosts/centx.app/httpdocs/files/videos/2021/02/25//1614260084812ef-sd.mp4: 0.001 secs Interleaving
ISO File Writing: |                    | (01/100)ISO File Writing: |                    | (02/100)ISO File Writing: |                    | (03/100)ISO File Writing: |                    | (04/100)ISO File Writing: |=                   | (05/100)ISO File Writing: |=                   | (06/100)ISO File Writing: |=                   | (07/100)ISO File Writing: |=                   | (08/100)ISO File Writing: |=                   | (09/100)ISO File Writing: |==                  | (10/100)ISO File Writing: |==                  | (11/100)ISO File Writing: |==                  | (12/100)ISO File Writing: |==                  | (13/100)ISO File Writing: |==                  | (14/100)ISO File Writing: |===                 | (15/100)ISO File Writing: |===                 | (16/100)ISO File Writing: |===                 | (17/100)ISO File Writing: |===                 | (18/100)ISO File Writing: |===                 | (19/100)ISO File Writing: |====                | (20/100)ISO File Writing: |====                | (21/100)ISO File Writing: |====                | (22/100)ISO File Writing: |====                | (23/100)ISO File Writing: |====                | (24/100)ISO File Writing: |=====               | (25/100)ISO File Writing: |=====               | (26/100)ISO File Writing: |=====               | (27/100)ISO File Writing: |=====               | (28/100)ISO File Writing: |=====               | (29/100)ISO File Writing: |======              | (30/100)ISO File Writing: |======              | (31/100)ISO File Writing: |======              | (32/100)ISO File Writing: |======              | (33/100)ISO File Writing: |======              | (34/100)ISO File Writing: |=======             | (35/100)ISO File Writing: |=======             | (36/100)ISO File Writing: |=======             | (37/100)ISO File Writing: |=======             | (38/100)ISO File Writing: |=======             | (39/100)ISO File Writing: |========            | (40/100)ISO File Writing: |========            | (41/100)ISO File Writing: |========            | (42/100)ISO File Writing: |========            | (43/100)ISO File Writing: |========            | (44/100)ISO File Writing: |=========           | (45/100)ISO File Writing: |=========           | (46/100)ISO File Writing: |=========           | (47/100)ISO File Writing: |=========           | (48/100)ISO File Writing: |=========           | (49/100)ISO File Writing: |==========          | (50/100)ISO File Writing: |==========          | (51/100)ISO File Writing: |==========          | (52/100)ISO File Writing: |==========          | (53/100)ISO File Writing: |==========          | (54/100)ISO File Writing: |===========         | (55/100)ISO File Writing: |===========         | (56/100)ISO File Writing: |===========         | (57/100)ISO File Writing: |===========         | (58/100)ISO File Writing: |===========         | (59/100)ISO File Writing: |============        | (60/100)ISO File Writing: |============        | (61/100)ISO File Writing: |============        | (62/100)ISO File Writing: |============        | (63/100)ISO File Writing: |============        | (64/100)ISO File Writing: |=============       | (65/100)ISO File Writing: |=============       | (66/100)ISO File Writing: |=============       | (67/100)ISO File Writing: |=============       | (68/100)ISO File Writing: |=============       | (69/100)ISO File Writing: |==============      | (70/100)ISO File Writing: |==============      | (71/100)ISO File Writing: |==============      | (72/100)ISO File Writing: |==============      | (73/100)ISO File Writing: |==============      | (74/100)ISO File Writing: |===============     | (75/100)ISO File Writing: |===============     | (76/100)ISO File Writing: |===============     | (77/100)ISO File Writing: |===============     | (78/100)ISO File Writing: |===============     | (79/100)ISO File Writing: |================    | (80/100)ISO File Writing: |================    | (81/100)ISO File Writing: |================    | (82/100)ISO File Writing: |================    | (83/100)ISO File Writing: |================    | (84/100)ISO File Writing: |=================   | (85/100)ISO File Writing: |=================   | (86/100)ISO File Writing: |=================   | (87/100)ISO File Writing: |=================   | (88/100)ISO File Writing: |=================   | (89/100)ISO File Writing: |==================  | (90/100)ISO File Writing: |==================  | (91/100)ISO File Writing: |==================  | (92/100)ISO File Writing: |==================  | (93/100)ISO File Writing: |==================  | (94/100)ISO File Writing: |=================== | (95/100)ISO File Writing: |=================== | (96/100)ISO File Writing: |=================== | (97/100)ISO File Writing: |=================== | (98/100)ISO File Writing: |=================== | (99/100)ISO File Writing: |====================| (100/100)                                                         

 Conversion Status : Successful @ 2021-02-25 13:35:28 


OutPut Deatils
--------------
		<strong>format</strong> : mov,mp4,m4a,3gp,3g2,mj2
<strong>duration</strong> : 105.73
<strong>size</strong> : 1230143
<strong>bitrate</strong> : 93074
<strong>video_width</strong> : 1278
<strong>video_height</strong> : 718
<strong>video_wh_ratio</strong> : 1.7799442896936
<strong>video_codec</strong> : h264
<strong>video_rate</strong> : 30
<strong>video_bitrate</strong> : 90121
<strong>video_color</strong> : N/A
<strong>audio_codec</strong> : 
<strong>audio_bitrate</strong> : 0
<strong>audio_rate</strong> : 0
<strong>audio_channels</strong> : 0
<strong>path</strong> : /var/www/vhosts/centx.app/httpdocs/files/videos/2021/02/25//1614260084812ef-sd.mp4
<strong>rotation</strong> : 0


Conversion Completed___ Output File/var/www/vhosts/centx.app/httpdocs/files/videos/2021/02/25//1614260084812ef-sd.mp4
---------------------------------------------------------------------------------------------------------------------
		

Time Took : 39.3833 seconds

conversion_status : completed 
